/* XPM */
static char *_adea97a4d104611f4d88fe9353df18bTUvb5hM4ViAjwZNx[] = {
/* columns rows colors chars-per-pixel */
"32 32 208 2 ",
"   c #000035",
".  c #000036",
"X  c #00003E",
"o  c #000140",
"O  c #000446",
"+  c #000546",
"@  c #000647",
"#  c #000748",
"$  c #010748",
"%  c #010849",
"&  c #020849",
"*  c #020949",
"=  c #03094A",
"-  c #030A4A",
";  c #040A4A",
":  c #050B4B",
">  c #060C4C",
",  c #080F4E",
"<  c #0A104F",
"1  c #0A114F",
"2  c #0D1351",
"3  c #0D1451",
"4  c #0E1451",
"5  c #0D1452",
"6  c #0E1452",
"7  c #0E1552",
"8  c #0F1552",
"9  c #0F1653",
"0  c #101653",
"q  c #101753",
"w  c #111753",
"e  c #111754",
"r  c #121854",
"t  c #121855",
"y  c #131955",
"u  c #141954",
"i  c #141955",
"p  c #141A55",
"a  c #141A56",
"s  c #151A56",
"d  c #151B56",
"f  c #151B57",
"g  c #161C57",
"h  c #171C57",
"j  c #171D58",
"k  c #181E58",
"l  c #191F59",
"z  c #1A205A",
"x  c #1B215A",
"c  c #1B215B",
"v  c #1E235C",
"b  c #1E245D",
"n  c #1F245D",
"m  c #20265E",
"M  c #21265E",
"N  c #21265F",
"B  c #22275F",
"V  c #222860",
"C  c #232860",
"Z  c #232960",
"A  c #242960",
"S  c #242961",
"D  c #242A61",
"F  c #252A61",
"G  c #252B62",
"H  c #252B63",
"J  c #262B62",
"K  c #262C62",
"L  c #272C63",
"P  c #282D63",
"I  c #282E64",
"U  c #292E64",
"Y  c #2A2F65",
"T  c #2A3065",
"R  c #2B3065",
"E  c #2A3066",
"W  c #2B3066",
"Q  c #2C3166",
"!  c #2D3267",
"~  c #2E3368",
"^  c #2E3468",
"/  c #2F3469",
"(  c #303569",
")  c #31366A",
"_  c #33386B",
"`  c #33396C",
"'  c #34396C",
"]  c #353A6C",
"[  c #353A6D",
"{  c #363B6D",
"}  c #373C6E",
"|  c #383D6F",
" . c #393E70",
".. c #3A3F70",
"X. c #3B3F71",
"o. c #3C4171",
"O. c #3F4474",
"+. c #404474",
"@. c #424675",
"#. c #424776",
"$. c #434877",
"%. c #444977",
"&. c #464B79",
"*. c #484C7A",
"=. c #4A4E7B",
"-. c #4F547F",
";. c #58587E",
":. c #5A5A7F",
">. c #515580",
",. c #535781",
"<. c #525782",
"1. c #555983",
"2. c #555A83",
"3. c #565A83",
"4. c #575C85",
"5. c #5A5E87",
"6. c #5B5F87",
"7. c #5D6188",
"8. c #5D6189",
"9. c #5E6289",
"0. c #5F638A",
"q. c #61658B",
"w. c #62658C",
"e. c #63678C",
"r. c #64688D",
"t. c #65688E",
"y. c #65698E",
"u. c #676B8F",
"i. c #686B90",
"p. c #686C90",
"a. c #696D91",
"s. c #6B6D90",
"d. c #6B6F92",
"f. c #6C6F93",
"g. c #6E7194",
"h. c #6E7294",
"j. c #6F7295",
"k. c #707395",
"l. c #717496",
"z. c #727597",
"x. c #727697",
"c. c #737698",
"v. c #747798",
"b. c #757899",
"n. c #757999",
"m. c #76799A",
"M. c #7B7B98",
"N. c #797D9C",
"B. c #7A7D9C",
"V. c #7A7D9D",
"C. c #7B7E9D",
"Z. c #7E819F",
"A. c #7E81A0",
"S. c #7F83A2",
"D. c #8083A1",
"F. c #8689A5",
"G. c #878AA6",
"H. c #8888A2",
"J. c #888BA6",
"K. c #8B8DA8",
"L. c #8C8FA9",
"P. c #8F91A9",
"I. c #8E90AA",
"U. c #8F91AC",
"Y. c #9092AB",
"T. c #9093AD",
"R. c #9294AD",
"E. c #9395AE",
"W. c #9497AF",
"Q. c #9698B0",
"!. c #9699B0",
"~. c #989BB2",
"^. c #9B9CB1",
"/. c #9C9FB4",
"(. c #9D9FB5",
"). c #9EA0B6",
"_. c #9FA1B6",
"`. c #A1A3B8",
"'. c #A2A4B9",
"]. c #A4A6BA",
"[. c #A6A7BB",
"{. c #A6A8BB",
"}. c #B0B1C2",
"|. c #B4B6C5",
" X c #B5B7C6",
".X c #B6B8C6",
"XX c #B9BBC9",
"oX c #BDBECB",
"OX c #C1C2CE",
"+X c #C2C4CF",
"@X c #C3C5D0",
"#X c #CDCED6",
"$X c #CECFD7",
"%X c #CFD0D8",
"&X c #D0D1D8",
"*X c #D0D1D9",
"=X c #D1D1D9",
"-X c #D2D3DA",
";X c #D5D6DC",
":X c #D6D6DC",
">X c #D7D8DD",
",X c #D8D9DE",
"<X c #D9D9DE",
"1X c #DCDCE0",
"2X c #DFDFE2",
"3X c #E2E2E5",
"4X c #E2E3E5",
"5X c #E8E8E9",
/* pixels */
"y y y y y y y y y y y y y y y y y y y y q a a a a q a q a e a a ",
"y y y y y y y y y y y y y y y y y y y y a a u e a a a e a u a q ",
"y y y y y y y y y y y y y y y y e a y y u e a a u a q u a q a u ",
"y y y y y y y y y y y y y y y a a q a y a a q e e a a a a a a e ",
"y y y y y y y y y y y y a r a 3 a B 0 a q a a u a q e u u a q a ",
"y y y y y y y y y y y y r a a F ] ,.! q a u a q a a a a e a u a ",
"y y y y y y y y y y u a a q b / K X.' q a a a a u e q a u a e a ",
"y y y y y y y y y y y a a q Y ^ F q ) a u e e a a a a a e a q a ",
"y y y y r a r a r a r a r z &.! v M &.k e y y y q a q a a a a q ",
"y y y y a r a r a r u a 1 #.-.M F R | q a y y y u a a a u e a a ",
"y y y y r a r a y y a a 3 ' o.h 3 ) v e a a y y e q a e a a u e ",
"y y y y a r a r y y y u 3 M Y B ' Y a y y y y y a a a u u q a a ",
"y y y y y y r a y y y a r z *.o.%.F y a y y y y e a a a e q a a ",
"y y y a y y a a y y y y a q ! _ 3 a y y y y y y a a e e a a e u ",
"y y y a h a a h h y h h a h y r a k a a k g a a a a a k a a a a ",
"y y a 3 % 3 a % % r > @ q , % y e $ q q $ ; q 1 4 4 4 @ 4 a a q ",
"a a 3 _ N.~ j g.c.v 7.A.F >.l.g a v.Y v b.d.M &./ ' / N.R 4 y y ",
"a h % z.,X~.' &XF.~ @X/.Y ].:X0.3.:XT.#.:Xb.} oXz.g.e.,X).4 a y ",
"y h & M.3.K.,.H.. H ^.o 2 P.;.D.b.s.#.3.M.. R :XE.7.i.7.W.M y y ",
"y h ; f.=X!.~ 2Xe.3 &XG.- ].&X5.Y &Xa +.3X=.b #X+X7.d.g.E.b q y ",
"y h % z.).a ' |.Y z |.$.< /.OX' @ g.Q.O.}.k ~ ).,Xe.d.u.P.M e y ",
"y h % N.7.X &.Q.; I `.j g U.L.3.y.z.U.3.J.@ o.K.|.l.e.D.`.z y y ",
"y h ; g.e.$ ) %XXXY .X%X .C.t.z.] 3Xd.` 1X]. .N.c.d.<.5Xb.> h y ",
"y y y k j y y V C g v F k k a v 4 v q a C C a z a g j C 3 y y y ",
"y y y r r y y q 3 a q q q u a e a q a y 3 9 y e y e y 9 a y y y ",
"y y y y y y y a a y a a e u e u a a y y a a y y y y y a y y y y ",
"y y y y y y y y y y y y a a a a y y y y a a y y y y y y y y y y ",
"y y y y y y y y y y y y u e e a y y y y y y y y y y y y y y y y ",
"y y y y y y y y y y y y y y y y y y y y y y y y y y y y y y y y ",
"y y y y y y y y y y y y y y y y y y y y y y y y y y y y y y y y ",
"y y y y y y y y y y y y y y y y y y y y y y y y y y y y y y y y ",
"y y y y y y y y y y y y y y y y y y y y y y y y y y y y y y y y "
};
