/* XPM */
static char *d7e212ce347549eeba812b89d1b9b2457wFzJEynb0eZGTno[] = {
/* columns rows colors chars-per-pixel */
"16 16 199 2 ",
"   c #131955",
".  c #131955",
"X  c #131955",
"o  c #131955",
"O  c #131955",
"+  c #131955",
"@  c #141A56",
"#  c #131955",
"$  c #131955",
"%  c #131955",
"&  c #131955",
"*  c #131955",
"=  c #131955",
"-  c #131955",
";  c #131955",
":  c #131955",
">  c #131955",
",  c #131955",
"<  c #131955",
"1  c #121955",
"2  c #101653",
"3  c #121854",
"4  c #131955",
"5  c #131955",
"6  c #131955",
"7  c #131955",
"8  c #131955",
"9  c #131955",
"0  c #131955",
"q  c #161C57",
"w  c #2F3469",
"e  c #1B215B",
"r  c #111754",
"t  c #141955",
"y  c #131955",
"u  c #131955",
"i  c #131955",
"p  c #141955",
"a  c #111754",
"s  c #282D64",
"d  c #2F3569",
"f  c #242961",
"g  c #101753",
"h  c #141A56",
"j  c #131955",
"k  c #101653",
"l  c #232960",
"z  c #353A6D",
"x  c #20265E",
"c  c #282D64",
"v  c #101653",
"b  c #141A56",
"n  c #131955",
"m  c #141A56",
"M  c #101653",
"N  c #21275F",
"B  c #2E3368",
"V  c #282E64",
"C  c #181E58",
"Z  c #121854",
"A  c #131955",
"S  c #131955",
"D  c #131955",
"F  c #131955",
"G  c #141A55",
"H  c #151B56",
"J  c #141A56",
"K  c #141A56",
"L  c #131955",
"P  c #161B57",
"I  c #353B6D",
"U  c #252B62",
"Y  c #131955",
"T  c #141A56",
"R  c #141A56",
"E  c #141A56",
"W  c #141A56",
"Q  c #141A56",
"!  c #131955",
"~  c #141A55",
"^  c #111754",
"/  c #0C1250",
"(  c #0F1552",
")  c #121854",
"_  c #111753",
"`  c #101753",
"'  c #0B1250",
"]  c #0A104F",
"[  c #0D1351",
"{  c #121854",
"}  c #0E1451",
"|  c #0E1451",
" . c #0D1351",
".. c #0E1552",
"X. c #141A56",
"o. c #0B1250",
"O. c #373C6E",
"+. c #6F7295",
"@. c #5B5F87",
"#. c #585C85",
"$. c #62658C",
"%. c #595D86",
"&. c #62668C",
"*. c #5F638A",
"=. c #5B5F87",
"-. c #61658B",
";. c #545882",
":. c #4E537E",
">. c #727697",
",. c #414675",
"<. c #0A104F",
"1. c #090F4E",
"2. c #434776",
"3. c #9799B1",
"4. c #747899",
"5. c #4A4E7B",
"6. c #63678C",
"7. c #595D86",
"8. c #8D90AA",
"9. c #65698E",
"0. c #676A8F",
"q. c #535882",
"w. c #797C9C",
"e. c #9A9CB3",
"r. c #707396",
"t. c #5A5E86",
"y. c #090F4E",
"u. c #070D4D",
"i. c #4B4F7C",
"p. c #4E527E",
"a. c #63668C",
"s. c #555A83",
"d. c #676A8F",
"f. c #61658B",
"g. c #7F82A0",
"h. c #575B84",
"j. c #8689A5",
"k. c #595D86",
"l. c #6A6D91",
"z. c #A0A2B7",
"x. c #7C7F9E",
"c. c #5C6088",
"v. c #080E4D",
"b. c #0E1452",
"n. c #2B3166",
"m. c #1C225C",
"M. c #464A78",
"N. c #4D517D",
"B. c #565A84",
"V. c #3E4373",
"C. c #3C4071",
"Z. c #515580",
"A. c #454A78",
"S. c #575B84",
"D. c #3B4071",
"F. c #3E4373",
"G. c #5C6088",
"H. c #33386B",
"J. c #0C1350",
"K. c #141A56",
"L. c #101653",
"P. c #121854",
"I. c #0C1250",
"U. c #0B1250",
"Y. c #0A104F",
"T. c #0D1351",
"R. c #0D1351",
"E. c #0A104E",
"W. c #0B1150",
"Q. c #0A114F",
"!. c #0D1451",
"~. c #0C1350",
"^. c #080F4E",
"/. c #0E1451",
"(. c #141A56",
"). c #131955",
"_. c #141A56",
"`. c #141A55",
"'. c #151B56",
"]. c #151B56",
"[. c #151B57",
"{. c #151B56",
"}. c #151B56",
"|. c #151B57",
" X c #151B56",
".X c #151B57",
"XX c #151B56",
"oX c #151B56",
"OX c #161B57",
"+X c #141A56",
"@X c #131955",
"#X c #131955",
"$X c #131955",
"%X c #131955",
"&X c #131955",
"*X c #131955",
"=X c #131955",
"-X c #131955",
";X c white",
/* pixels */
"  . X X X o O + @ # $ % X & * = ",
"- ; = : > , < 1 2 3 4 5 : : 6 7 ",
"* = 8 8 9 < 0 q w e r t 8 6 y O ",
"u : 8 6 i p a s d f g h 6 6 j i ",
"u : 8 6 h k l z x c v b 6 6 j i ",
"- & n n m M N B V C Z A S D - 7 ",
"F G H J K L P I U Y T R E W Q ! ",
"~ ^ / ( ) _ ` ' ] [ { } |  ...X.",
"o.O.+.@.#.$.%.&.*.=.-.;.:.>.,.<.",
"1.2.3.4.5.6.7.8.9.0.q.w.e.r.t.y.",
"u.i.p.a.s.d.f.g.h.j.k.l.z.x.c.v.",
"b.n.m.M.N.B.V.C.Z.A.S.D.F.G.H.J.",
"K.L.P.I.U.Y.T.R.E.W.Q.!.~.^./.(.",
")._.`.'.].[.{.}.|. X.XXXoXOX+X@X",
"#X$X- . . . . . . . . . . . X : ",
"%X&X*X*X*X*X*X*X*X*X*X*X*X*X=X-X"
};
