/* XPM */
static char *a70ada822d624e2abb6e70baa33ae25csMgiiZLRgBOEe333[] = {
/* columns rows colors chars-per-pixel */
"64 64 130 2 ",
"   c #00003E",
".  c #000243",
"X  c #010748",
"o  c #050B4B",
"O  c #080F4E",
"+  c #0B114F",
"@  c #0D1451",
"#  c #111753",
"$  c #131955",
"%  c #171D58",
"&  c #191F59",
"*  c #1C225B",
"=  c #20265E",
"-  c #252A62",
";  c #292E64",
":  c #2C3166",
">  c #2F3469",
",  c #31366A",
"<  c #353A6D",
"1  c #393D6F",
"2  c #3A3F70",
"3  c #3D4272",
"4  c #414675",
"5  c #444877",
"6  c #464B79",
"7  c #4A4E7B",
"8  c #4D527D",
"9  c #525681",
"0  c #555A83",
"q  c #595D86",
"w  c #5D6188",
"e  c #61658B",
"r  c #65698E",
"t  c #6A6D91",
"y  c #6E7295",
"u  c #727597",
"i  c #747798",
"p  c #777A9A",
"a  c #797C9C",
"s  c #7E819F",
"d  c #7F82A0",
"f  c #8285A2",
"g  c #878AA5",
"h  c #898CA7",
"j  c #8A8DA8",
"k  c #8E91AA",
"l  c #9396AE",
"z  c #979AB1",
"x  c #9B9DB4",
"c  c #9EA1B6",
"v  c #A0A2B7",
"b  c #A3A5B9",
"n  c #A6A8BB",
"m  c #A9ABBD",
"M  c #AFB1C2",
"N  c #B3B5C4",
"B  c #B7B9C7",
"V  c #BBBCCA",
"C  c #BFC0CD",
"Z  c #C3C4CF",
"A  c #C0C1CD",
"S  c #C5C6D0",
"D  c #C5C6D1",
"F  c #C7C8D2",
"G  c #C9CAD4",
"H  c #CBCCD5",
"J  c #CCCCD5",
"K  c #CECFD7",
"L  c #CCCDD5",
"P  c #CFD0D7",
"I  c #CFD0D8",
"U  c #CFD0DA",
"Y  c #D0D1D9",
"T  c #D1D2D9",
"R  c #D3D3DA",
"E  c #D3D4DB",
"W  c #D4D4DB",
"Q  c #D4D5DB",
"!  c #D5D5DB",
"~  c #D5D6DC",
"^  c #D3D4DA",
"/  c #D9DADF",
"(  c #DADBDF",
")  c #D9D9DE",
"_  c #DCDCE0",
"`  c #DFDFE3",
"'  c #DDDDE1",
"]  c #DFE0E3",
"[  c #E0E0E3",
"{  c #E0E1E3",
"}  c #E1E1E4",
"|  c #E2E2E5",
" . c #E5E5E7",
".. c #E5E6E7",
"X. c #E6E6E7",
"o. c #E3E3E5",
"O. c #E6E7E8",
"+. c #E7E7E8",
"@. c #E8E8E9",
"#. c #EAEAEA",
"$. c #EAEAEB",
"%. c gray92",
"&. c #EBECEB",
"*. c #ECECEB",
"=. c #ECECEC",
"-. c #EDEDEC",
";. c gray93",
":. c #EEEEED",
">. c #EEEEEE",
",. c #EBEBEB",
"<. c #F0F0EF",
"1. c #F1F1F0",
"2. c #F3F3F1",
"3. c #F5F4F2",
"4. c #F5F5F2",
"5. c #F4F4F2",
"6. c #F8F7F4",
"7. c #F8F8F4",
"8. c #F9F8F5",
"9. c #F9F9F5",
"0. c #FBFAF6",
"q. c #FBFBF6",
"w. c #FCFBF6",
"e. c #FCFBF7",
"r. c #FAFAF6",
"t. c #FDFDF9",
"y. c #FFFFFB",
"u. c #FFFFFD",
"i. c white",
"p. c #FFFEFC",
/* pixels */
"$ $ $ $ $ # $ $ $ $ $ $ $ $ $ $ $ $ $ $ $ $ $ $ $ $ $ $ $ $ $ $ $ $ $ $ $ $ $ $ $ $ $ $ $ $ $ $ $ $ $ $ $ $ $ $ $ $ $ $ $ $ $ $ ",
"$ $ $ $ $ $ $ $ $ $ $ $ $ $ $ $ $ $ $ $ $ $ $ $ $ $ $ $ $ $ $ $ $ $ $ $ $ $ $ $ $ $ $ $ $ $ $ $ $ $ $ $ $ $ $ $ $ $ $ $ $ $ $ $ ",
"$ $ $ $ $ $ $ $ $ $ $ $ $ $ $ $ $ $ $ $ $ $ $ $ $ $ $ $ $ $ $ $ $ $ $ $ $ $ $ $ $ $ $ $ $ $ $ $ $ $ $ $ $ $ $ $ $ $ $ $ $ $ $ $ ",
"$ $ $ $ $ $ $ $ $ $ $ $ $ $ $ $ $ $ $ $ $ $ $ $ $ $ $ $ $ $ $ $ $ $ $ $ $ $ $ $ $ $ $ $ $ $ $ # $ $ $ $ # $ $ $ $ $ $ $ $ $ $ $ ",
"$ $ $ $ $ $ $ $ $ $ $ $ $ $ $ $ $ $ $ $ $ $ $ $ $ $ $ $ $ $ $ $ $ $ $ $ $ $ $ $ $ $ $ $ $ $ $ # $ $ # $ $ $ $ $ $ $ $ $ $ $ $ $ ",
"$ $ $ % $ $ $ $ $ $ $ $ $ $ $ $ $ $ $ $ $ $ $ $ $ $ $ $ $ $ $ $ $ $ $ $ $ $ $ $ $ $ $ $ $ $ $ $ $ $ $ % $ $ $ $ $ $ $ $ $ $ $ $ ",
"$ $ $ $ $ $ $ $ $ $ $ $ $ $ $ $ # $ $ $ $ $ $ # $ $ $ $ $ $ $ $ $ $ $ $ $ $ $ $ $ $ $ $ $ $ $ $ $ $ $ $ $ $ $ $ $ $ $ $ $ $ $ $ ",
"$ $ $ $ $ $ # $ $ $ # $ $ $ $ $ $ $ $ $ $ $ $ $ $ $ $ $ $ $ $ $ $ $ $ $ $ # $ $ $ $ $ $ $ $ $ $ $ $ $ $ $ $ $ $ $ $ $ $ $ $ $ $ ",
"$ $ $ $ $ $ $ $ $ $ $ $ $ $ $ $ $ $ $ $ $ $ $ $ $ $ $ $ $ $ $ $ $ $ + # $ # $ $ $ $ $ $ $ $ $ $ $ $ $ $ $ $ $ $ $ $ $ $ $ $ $ $ ",
"$ $ $ $ $ $ $ $ $ $ $ $ $ $ $ $ $ $ $ $ $ $ $ $ $ $ $ $ $ $ $ $ $ % 8 = # $ $ $ $ $ # % $ $ $ $ $ $ $ $ $ $ $ $ $ $ $ $ $ $ $ $ ",
"$ $ $ $ $ $ $ $ $ $ $ $ $ $ $ $ $ $ $ $ $ $ $ $ $ $ $ $ $ $ $ $ # 3 7 8 * # $ $ $ $ $ $ $ $ $ $ $ $ $ $ $ $ $ $ $ $ $ $ $ $ $ $ ",
"$ $ $ # $ $ $ $ $ $ $ $ $ $ $ $ $ $ $ $ $ $ $ $ $ $ $ $ $ $ 3 1 8 8 < r y $ $ $ $ $ $ $ $ $ $ $ $ $ $ $ $ $ $ $ $ $ $ $ # $ $ $ ",
"$ $ $ $ $ $ $ $ $ $ $ $ $ $ $ $ $ $ $ $ $ $ $ $ $ $ $ $ @ ; : * 4 + = w 3 = # $ $ # # $ $ $ $ $ $ $ $ $ $ $ $ $ $ $ $ $ $ $ $ $ ",
"$ $ $ $ $ $ $ $ $ $ $ $ $ $ $ # $ $ $ $ $ $ $ $ $ $ $ $ @ 2 * 3 $ = 4 = 3 = $ $ % $ # % # % $ $ $ $ $ $ $ $ $ $ $ $ $ $ $ $ $ $ ",
"$ $ $ $ # $ $ $ $ $ $ $ $ $ $ $ $ $ $ $ $ $ $ $ $ $ $ # * , < * : 4 $ # 6 > # $ # $ $ $ $ $ # $ $ # $ $ $ $ # $ $ $ $ $ $ $ $ $ ",
"$ $ $ $ $ $ $ $ $ $ $ $ $ $ $ $ $ # $ $ $ $ $ $ $ $ $ # ; 2 : , 3 + $ # < 4 + $ $ $ $ $ $ $ $ $ $ $ $ $ $ $ $ $ $ $ $ $ $ $ $ $ ",
"$ $ $ $ $ $ $ $ $ $ $ $ $ $ $ $ $ $ $ $ $ $ $ $ $ $ $ $ 2 4 4 , O # @ + * 0 $ $ $ $ $ $ $ $ $ $ $ $ $ $ $ $ $ $ $ $ $ $ $ $ $ $ ",
"$ $ $ $ $ $ $ $ $ $ $ $ $ $ $ # $ $ $ $ $ $ $ $ $ $ $ * q 5 * + * ; 1 4 8 t @ $ $ $ $ $ $ $ $ # $ $ $ $ $ $ $ $ $ $ $ $ $ $ $ $ ",
"$ $ $ $ $ $ $ $ $ $ $ $ $ $ $ $ $ $ $ $ $ $ $ $ $ % O q p < 2 5 4 1 ; $ 8 1 + $ $ $ $ $ $ $ $ $ $ $ $ $ $ # $ $ $ $ $ $ $ $ $ $ ",
"$ $ $ $ $ $ $ $ $ $ $ $ $ $ $ $ $ $ $ $ $ $ $ $ $ $ @ h 7 - - $ @ @ O , 7 % # $ $ $ $ $ $ $ $ $ $ $ $ $ $ $ $ $ $ $ $ $ $ $ $ $ ",
"$ $ $ $ $ $ $ $ $ $ $ $ $ $ $ $ $ $ $ $ $ $ $ $ $ % # q 6 = O $ % @ : 3 , # $ $ $ $ $ $ $ $ $ $ $ $ $ $ $ $ $ $ $ $ $ $ $ $ $ $ ",
"$ $ $ $ $ $ $ # $ $ $ $ $ $ $ # $ $ $ $ $ $ $ # $ $ @ 6 < 2 < @ $ * 1 ; - @ % $ $ $ $ % $ $ $ # $ $ $ $ $ $ $ $ $ $ $ $ $ $ $ $ ",
"$ $ $ $ $ $ $ $ $ $ $ $ $ $ $ $ $ $ $ $ $ $ $ $ $ $ @ < 4 @ 1 2 # 5 & < % $ $ # $ $ $ $ $ $ $ $ $ $ $ $ $ $ $ $ $ $ $ $ $ $ $ $ ",
"$ $ $ $ $ $ $ $ $ $ $ $ $ $ $ $ $ $ $ $ $ $ $ $ $ $ # ; 2 = O - e * & , + $ $ $ $ $ $ $ $ $ $ $ $ $ $ # $ $ $ $ $ $ # $ $ $ $ $ ",
"$ $ $ $ $ $ $ $ $ $ $ $ $ $ $ $ $ $ $ $ $ $ $ $ $ $ # - 1 1 & - 8 5 4 * # $ $ $ $ $ $ $ $ $ $ $ $ $ $ $ $ $ $ $ $ $ $ $ $ $ $ $ ",
"$ $ $ $ $ $ $ $ $ $ $ $ $ $ $ # $ $ $ $ $ $ $ $ $ $ $ & e r 6 e < 6 3 $ $ $ $ $ $ $ $ $ $ $ $ $ $ $ $ $ $ $ $ $ $ $ $ $ $ $ $ $ ",
"$ $ $ $ $ $ $ $ $ $ $ $ $ $ $ $ $ $ $ $ $ $ $ $ $ $ $ # % 7 8 = + @ + $ $ $ $ $ $ $ $ $ $ $ $ $ $ $ $ $ $ $ $ $ $ $ $ $ $ $ $ $ ",
"$ $ $ $ # $ $ $ $ $ $ $ $ $ $ $ $ $ $ $ $ $ $ $ $ $ $ $ @ * 4 # $ $ $ $ $ $ $ $ $ $ $ $ $ $ $ $ $ $ $ $ $ $ $ $ $ $ $ $ $ $ $ $ ",
"$ $ $ $ $ $ $ $ $ $ $ $ $ $ $ $ $ $ $ $ $ $ $ $ $ $ $ $ $ # @ $ $ $ $ $ $ $ $ $ $ $ $ $ $ $ $ $ $ $ $ $ $ $ $ $ $ $ $ $ # $ $ $ ",
"$ $ $ $ $ $ $ $ $ $ $ $ $ $ $ $ $ $ $ $ $ $ $ $ $ $ $ % $ $ $ $ $ $ $ $ $ $ $ $ $ $ $ $ $ $ $ $ $ $ $ $ $ $ $ $ $ $ $ $ $ $ $ $ ",
"$ $ $ $ $ $ $ $ $ $ $ $ $ $ $ $ $ $ $ $ $ $ $ $ $ $ $ $ $ $ $ $ $ $ $ $ $ $ $ $ $ $ $ $ $ $ $ $ $ $ $ $ $ $ $ $ $ $ $ $ $ $ $ $ ",
"$ $ $ $ $ $ $ $ $ $ % $ $ $ $ $ $ % $ $ $ $ $ $ $ $ $ $ $ % $ $ $ $ $ $ $ $ $ $ % $ $ $ $ $ $ $ $ $ $ $ $ $ $ $ $ $ $ $ $ $ $ $ ",
"$ $ $ $ $ $ $ @ @ @ O $ $ @ @ @ @ O $ $ @ + + + @ $ @ + @ o $ $ $ # + # O $ $ @ @ @ O @ $ $ @ @ $ @ @ $ $ + + + O $ $ $ $ $ $ $ ",
"$ $ $ $ $ $ # l V V i $ @ < V B V V : @ z Z B Z e . r Z B c = @ # - m Y r @ @ 0 D N C c @ = V r . a b $ $ z A B r + $ % $ $ $ $ ",
"$ $ $ $ $ $ @ G r.>.u.w . 6 w.:.#.%.< O I 9. .w.a . g u.#.u.b + O z u.#.3.2 . p u.#.1.G @ ; y.V . c } @ $ P w.<.t.8 O $ $ $ $ $ ",
"$ $ $ $ $ $ @ G n * ] N . 4 3.9 & - $ @ Y v $ ; * X f O.* x <.* @ } z - 3.s   u =., * - @ ;  ._ @ l ! # + T c = %.v o $ $ $ $ $ ",
"$ $ $ $ $ $ @ K b   b Y o 4 8.6 O $ $ @ Y x X $ % o f +.O 8 7.< $ #.u . _ z   p :.* @ $ @ : [ 7.1 j ) # + ~ x   B V O % $ $ $ $ ",
"$ $ $ $ $ $ @ K b   v ~ X 4 8.3 . & $ @ Y z . $ & X f  .X 8 9.< O ! N O < : X u :.$ O % @ : [ y.y h ) $ + ~ c . B A O % $ $ $ $ ",
"$ $ $ $ $ $ + K b = } N . 4 5.d 8 & $ @ K B 9 > $ o f #., N #.* X f u.i . $ X u 1.r 6 $ @ : [ @.n k ) @ # ~ c   B A o $ $ $ $ $ ",
"$ $ $ $ $ $ @ Z 3.3.y.9 . 5 :.u.3.; @ $ D r.u.y o O a t.1.y.f O $ & G u.w @ O t 9.u.U # @ :  .b H n R # + ~ x   B A O $ $ $ $ $ ",
"$ $ $ $ $ % @ D W j q @ + 4 5.x p * $ $ G D a 3 # o f #.z =.: @ & @ ; _ #.> X u <.h r $ # ; #.i K _ G $ @ W x   B V O $ $ $ $ $ ",
"$ $ $ $ $ $ @ I x   @ & O 3 8.2 . % $ @ R z   $ * X f ) ; 1.0 o $ * O 4 y.s   i *.$ X % @ ; <.q m u.D $ # W v   B A O $ $ $ $ $ ",
"$ $ $ $ $ $ O P b o & $ O 4 8.7 + % $ @ W x o % % X f } & _ j X & G y . Y b   u :.- # $ + ; 7.8 i u.Z $ @ W x   B C O % $ $ $ $ ",
"$ $ $ $ $ $ + K v o % $ O 4 3.6 o % $ @ Y x X % % X f  .O N C O $ O.z O  .l   p %.= @ $ # ; <.8 3 y.Z $ @ W z # [ n o $ $ $ $ $ ",
"$ $ $ $ $ $ @ W b X % & O 4 3.~ G K , @ K #.D _ t   h :.O f :.* o b 8.F y.0 . u y.G R N + ; 6.q # :.Y $ # J @.( y.e o % $ $ $ $ ",
"$ $ $ $ $ $ O V l o $ & @ 2 ) ) _ _ , O N _ ~ #.u . a I O 7 } 1 O : D >.k # O e o.~  .C # = ) q . m V # # N _ ) g # $ $ $ $ $ $ ",
"$ $ $ $ $ $ $ & % $ $ $ $ $ * & & & $ # & * & * $ $ $ * $ $ * % $ @ $ - @ $ $ $ * * & % $ $ * $ $ $ * $ $ % * % O # $ $ $ $ $ $ ",
"$ $ $ $ $ $ $ $ # $ $ $ $ $ # # # $ $ $ $ @ # $ $ $ $ # $ $ @ $ $ $ $ @ $ $ $ $ # # # # $ $ # $ $ # $ $ $ # # # $ $ $ $ $ $ $ $ ",
"$ $ $ $ $ $ $ $ $ $ $ $ $ $ $ $ $ $ $ $ $ $ $ $ % $ $ $ $ $ $ $ $ $ $ % $ $ $ $ % $ $ $ $ $ $ $ $ $ $ $ $ $ $ $ $ $ $ $ $ $ $ $ ",
"$ $ $ $ $ $ $ $ $ $ $ $ $ $ $ $ $ $ $ $ $ $ $ $ $ $ $ $ # $ $ $ $ $ $ $ $ $ $ $ $ $ $ $ $ $ $ $ $ $ $ $ $ $ $ $ $ $ $ $ $ $ $ $ ",
"$ $ $ $ $ $ $ $ $ $ $ $ $ $ $ $ $ $ $ $ $ $ $ $ $ $ $ $ $ $ $ $ $ $ $ $ $ $ $ $ $ $ $ $ $ $ $ $ $ $ $ $ $ $ $ $ $ $ $ $ $ $ $ $ ",
"$ $ $ $ $ $ $ $ $ $ $ $ $ $ $ $ $ $ $ $ $ $ $ $ $ $ $ $ $ $ $ $ $ $ $ $ $ $ $ $ $ $ $ $ $ $ $ $ $ $ $ $ $ $ $ $ $ $ $ $ $ $ $ $ ",
"$ $ $ $ $ $ $ $ $ $ $ $ $ $ $ $ $ $ $ $ $ $ $ $ $ $ $ $ $ $ $ $ $ $ $ $ $ $ $ $ $ $ $ $ $ $ $ $ $ $ $ $ $ $ $ $ $ $ $ $ $ $ $ $ ",
"$ $ $ $ $ $ $ $ $ $ $ $ $ $ $ $ $ $ $ $ $ $ $ $ $ $ $ $ $ $ $ $ $ $ $ $ $ $ $ $ $ $ $ $ $ $ $ $ $ $ $ $ $ $ $ $ $ $ $ $ $ $ $ $ ",
"$ $ $ $ $ $ $ $ $ $ $ $ $ # $ $ $ $ $ $ $ $ $ $ $ $ $ $ $ $ $ $ $ $ $ $ $ @ $ $ $ $ $ $ $ $ $ $ $ $ $ $ $ $ $ $ $ $ $ $ $ $ $ $ ",
"$ $ $ $ $ $ $ $ $ $ $ $ $ $ $ $ $ $ $ @ $ $ $ $ $ $ $ $ $ $ $ $ $ $ $ $ $ $ $ $ $ $ $ $ $ $ $ $ $ $ $ $ $ $ $ $ $ $ @ $ $ $ $ $ ",
"$ $ $ $ $ $ $ $ $ $ $ $ $ $ $ $ $ $ $ % $ $ $ $ % $ $ $ $ $ $ @ $ $ $ $ $ $ $ $ $ $ $ $ $ $ $ $ $ $ $ $ $ $ $ $ $ $ $ $ $ $ $ $ ",
"$ $ $ $ $ $ $ $ $ $ $ $ $ $ $ $ $ $ $ $ $ $ $ $ $ $ $ $ $ $ $ $ $ $ $ $ $ $ $ $ $ $ $ $ $ $ $ $ $ $ $ $ $ $ $ $ $ $ $ $ $ $ $ $ ",
"$ $ $ $ $ $ $ $ $ $ $ $ $ $ $ $ $ $ $ $ $ $ $ $ $ $ $ $ $ $ $ $ $ $ $ $ $ $ $ $ $ $ $ $ $ $ $ $ $ $ $ $ $ $ $ $ $ $ $ $ $ $ $ $ ",
"$ $ $ # $ $ $ $ $ $ $ $ $ $ # $ $ $ $ $ $ $ $ $ $ $ $ $ $ $ $ $ $ $ $ $ $ $ $ $ $ $ $ $ $ $ $ $ $ $ $ $ $ $ $ $ $ $ $ $ $ $ $ $ ",
"$ $ $ % $ $ $ $ $ $ $ $ $ $ $ $ $ $ $ $ $ % $ @ $ $ $ $ $ $ $ $ $ $ $ $ $ $ $ $ $ $ $ $ $ $ $ @ $ $ $ $ $ $ $ $ $ $ $ $ $ $ $ $ ",
"$ $ $ $ $ $ $ $ $ $ $ $ $ $ $ $ @ $ $ $ $ $ $ $ $ $ $ $ $ $ $ $ $ $ $ $ $ @ $ $ $ $ $ $ $ $ $ $ $ $ $ $ $ $ $ $ $ $ $ $ $ $ $ $ ",
"$ $ $ $ $ # $ $ $ $ $ $ $ # $ $ $ $ $ $ $ $ $ $ $ $ $ $ $ $ $ $ $ $ $ $ $ $ $ $ $ $ $ $ $ $ $ $ $ $ $ $ $ @ $ $ $ $ $ $ $ $ $ $ ",
"# $ $ $ $ $ $ $ $ $ $ $ $ $ $ $ $ $ $ $ $ $ $ $ $ $ $ $ $ $ $ $ $ $ $ $ $ $ $ $ $ $ $ $ $ $ $ $ $ $ $ $ $ $ $ $ $ $ $ $ $ $ $ $ "
};
